<svg preserveAspectRatio="none" overflow="visible" style="display: block;" width="32.0015" height="21.334" viewBox="0 0 32.0015 21.334" fill="none" xmlns="http://www.w3.org/2000/svg">
<g id="Group">
<path id="Vector" d="M31.718 10.0761L30.1513 5.35405C29.7447 4.12672 28.618 3.33338 27.282 3.33338H23.0873L23.2407 2.08339C23.2758 1.82173 23.2549 1.55561 23.1794 1.30265C23.1039 1.04968 22.9755 0.815647 22.8027 0.616052C22.6274 0.420477 22.4125 0.264413 22.1722 0.158211C21.932 0.0520093 21.672 -0.00190237 21.4093 5.17611e-05H5.25133C4.18467 5.17611e-05 3.21667 0.862052 3.09333 1.91539L3.008 2.58205C2.99687 2.6689 3.00296 2.75709 3.02592 2.84159C3.04888 2.92608 3.08826 3.00522 3.14181 3.0745C3.19536 3.14377 3.26203 3.20182 3.33802 3.24533C3.414 3.28883 3.49782 3.31694 3.58467 3.32805C3.67166 3.34019 3.7602 3.33482 3.8451 3.31226C3.92999 3.2897 4.00951 3.25041 4.07901 3.19669C4.1485 3.14297 4.20656 3.07591 4.24978 2.99944C4.293 2.92297 4.3205 2.83863 4.33067 2.75138L4.41667 2.07739C4.46267 1.68072 4.85267 1.33339 5.25133 1.33339H21.4093C21.5693 1.33339 21.7087 1.39205 21.8027 1.49805C21.8511 1.55585 21.8864 1.62341 21.9063 1.69613C21.9262 1.76884 21.9302 1.84499 21.918 1.91938L20.3567 14.6674H2.85533C2.85734 14.5061 2.80008 14.3496 2.6944 14.2277C2.58872 14.1058 2.44197 14.0269 2.282 14.0061C2.19512 13.995 2.10692 14.0013 2.02247 14.0245C1.93802 14.0477 1.85898 14.0874 1.78991 14.1412C1.72083 14.195 1.66308 14.262 1.61996 14.3382C1.57684 14.4144 1.54922 14.4984 1.53867 14.5854L1.29 16.59C1.25669 16.8526 1.27939 17.1192 1.35661 17.3724C1.43383 17.6255 1.56382 17.8595 1.738 18.0587C1.91171 18.2533 2.12515 18.4083 2.36391 18.5133C2.60267 18.6183 2.86119 18.6709 3.122 18.6674H4.41267C4.42267 19.3294 4.64133 19.9467 5.072 20.432C5.586 21.0134 6.318 21.334 7.13133 21.334C8.65667 21.334 10.0433 20.1574 10.3553 18.6674H21.9067C21.9167 19.3294 22.1353 19.946 22.5647 20.4314C23.0793 21.0134 23.8113 21.334 24.6253 21.334C26.15 21.334 27.5367 20.1574 27.8493 18.6674H29.2847C30.3633 18.6674 31.3113 17.8241 31.4427 16.7487L31.9547 12.5734C32.0631 11.734 31.9825 10.8809 31.7187 10.0767L31.718 10.0761ZM30.288 10.0001H26.2707L26.5873 7.41472C26.592 7.38072 26.6467 7.33338 26.674 7.33338H29.4033L30.288 10.0001ZM22.9247 4.66672H27.2827C28.046 4.66672 28.6593 5.09072 28.886 5.77405L28.9613 6.00005H26.674C25.9693 6.00005 25.3507 6.55005 25.2647 7.25205L24.938 9.91872C24.915 10.0965 24.9301 10.2772 24.9821 10.4488C25.0342 10.6204 25.1221 10.779 25.24 10.9141C25.476 11.1801 25.8193 11.3327 26.184 11.3327H30.6333C30.6757 11.6906 30.675 12.0523 30.6313 12.4101L30.3547 14.6661H21.6993L22.924 4.66605L22.9247 4.66672ZM22.1913 17.3334H21.3727L21.536 16.0001H23.2787C22.8098 16.346 22.4359 16.8046 22.1913 17.3334ZM20.03 17.3334H10.3373C10.2355 16.9274 10.0388 16.5513 9.76333 16.2361C9.68467 16.1474 9.59267 16.0767 9.50467 16.0001H20.194L20.03 17.3334ZM4.69133 17.3334H3.12133C3.04885 17.3361 2.97664 17.3231 2.90967 17.2952C2.84269 17.2674 2.78254 17.2253 2.73333 17.172C2.68429 17.1141 2.64816 17.0464 2.62735 16.9734C2.60654 16.9004 2.60154 16.8238 2.61267 16.7487L2.70533 16.0001H5.762C5.29627 16.3451 4.9273 16.8043 4.69067 17.3334H4.69133ZM9.08867 18.252C8.97267 19.2 8.076 20.0001 7.13067 20.0001C6.704 20.0001 6.328 19.8394 6.06933 19.5474C5.80667 19.2514 5.692 18.8487 5.74467 18.4147C5.86133 17.4667 6.758 16.6667 7.70333 16.6667C8.13 16.6667 8.50667 16.8274 8.76467 17.1194C9.02733 17.4154 9.142 17.818 9.08867 18.252ZM26.5827 18.252C26.466 19.2 25.5693 20.0001 24.6247 20.0001C24.198 20.0001 23.8213 19.8394 23.5627 19.5474C23.3 19.2514 23.1853 18.8487 23.2387 18.4147C23.3553 17.4667 24.252 16.6667 25.1967 16.6667C25.6233 16.6667 26 16.8274 26.2587 17.1194C26.5213 17.4154 26.636 17.818 26.5827 18.252ZM29.2847 17.3334H27.8313C27.7295 16.9274 27.5328 16.5513 27.2573 16.2361C27.1787 16.1474 27.0867 16.0767 26.9987 16.0001H30.192L30.12 16.5854C30.0713 16.984 29.6807 17.3334 29.2847 17.3334Z" fill="black"/>
<path id="Vector_2" d="M6.02 12.0001C6.02 11.8232 5.94976 11.6537 5.82474 11.5286C5.69971 11.4036 5.53014 11.3334 5.35333 11.3334H0.666667C0.489856 11.3334 0.320286 11.4036 0.195262 11.5286C0.0702379 11.6537 0 11.8232 0 12.0001C0 12.1769 0.0702379 12.3464 0.195262 12.4715C0.320286 12.5965 0.489856 12.6667 0.666667 12.6667H5.35333C5.53014 12.6667 5.69971 12.5965 5.82474 12.4715C5.94976 12.3464 6.02 12.1769 6.02 12.0001ZM2.72467 8.00005C2.54786 8.00005 2.37829 8.07029 2.25326 8.19531C2.12824 8.32034 2.058 8.48991 2.058 8.66672C2.058 8.84353 2.12824 9.0131 2.25326 9.13812C2.37829 9.26315 2.54786 9.33339 2.72467 9.33339H5.76533C5.94214 9.33339 6.11171 9.26315 6.23674 9.13812C6.36176 9.0131 6.432 8.84353 6.432 8.66672C6.432 8.48991 6.36176 8.32034 6.23674 8.19531C6.11171 8.07029 5.94214 8.00005 5.76533 8.00005H2.72467ZM1.45 6.00005H6.83667C7.01348 6.00005 7.18305 5.92981 7.30807 5.80479C7.43309 5.67977 7.50333 5.5102 7.50333 5.33339C7.50333 5.15657 7.43309 4.98701 7.30807 4.86198C7.18305 4.73696 7.01348 4.66672 6.83667 4.66672H1.45C1.27319 4.66672 1.10362 4.73696 0.978595 4.86198C0.853571 4.98701 0.783333 5.15657 0.783333 5.33339C0.783333 5.5102 0.853571 5.67977 0.978595 5.80479C1.10362 5.92981 1.27319 6.00005 1.45 6.00005Z" fill="black"/>
</g>
</svg>
