<svg preserveAspectRatio="none" overflow="visible" style="display: block;" width="24.4968" height="24.4973" viewBox="0 0 24.4968 24.4973" fill="none" xmlns="http://www.w3.org/2000/svg">
<path id="Vector" d="M8.7484 20.9972C8.7484 21.2293 8.65622 21.4519 8.49212 21.616C8.32803 21.7801 8.10547 21.8722 7.8734 21.8722H2.6234C2.16275 21.872 1.71029 21.7505 1.31146 21.52C0.912634 21.2894 0.581487 20.9581 0.351284 20.559C0.121081 20.16 -7.01346e-05 19.7075 3.04598e-08 19.2468C7.01955e-05 18.7862 0.121359 18.3337 0.351684 17.9347L4.10215 11.4543L2.56543 11.8644C2.45412 11.8942 2.33804 11.9017 2.22382 11.8865C2.1096 11.8714 1.99947 11.8339 1.89974 11.7762C1.69831 11.6597 1.55142 11.468 1.49137 11.2432C1.43132 11.0184 1.46304 10.7789 1.57955 10.5775C1.69606 10.3761 1.88781 10.2292 2.11262 10.1691L5.69684 9.20989C5.80787 9.18013 5.92368 9.17253 6.03764 9.18753C6.15161 9.20254 6.2615 9.23985 6.36104 9.29734C6.46058 9.35483 6.54782 9.43137 6.61777 9.52259C6.68772 9.6138 6.73901 9.71791 6.76872 9.82896L7.73012 13.4132C7.76049 13.5247 7.76845 13.6412 7.75356 13.7558C7.73866 13.8704 7.7012 13.981 7.64333 14.081C7.58546 14.1811 7.50834 14.2687 7.41642 14.3388C7.3245 14.4089 7.2196 14.4601 7.10778 14.4894C7.03348 14.5088 6.95705 14.5187 6.88028 14.519C6.68779 14.5188 6.50074 14.4551 6.34808 14.3379C6.19543 14.2206 6.08571 14.0563 6.0359 13.8704L5.62028 12.3227L1.86981 18.8097C1.79319 18.9424 1.75276 19.093 1.75258 19.2462C1.75239 19.3994 1.79246 19.55 1.86876 19.6829C1.94506 19.8158 2.05493 19.9264 2.18737 20.0034C2.3198 20.0805 2.47016 20.1215 2.6234 20.1222H7.8734C8.10547 20.1222 8.32803 20.2144 8.49212 20.3785C8.65622 20.5426 8.7484 20.7652 8.7484 20.9972ZM24.1407 17.9347L21.6098 13.5597C21.4887 13.3693 21.2988 13.233 21.0796 13.1793C20.8604 13.1256 20.6289 13.1587 20.4335 13.2716C20.2381 13.3845 20.0939 13.5686 20.031 13.7854C19.9682 14.0021 19.9914 14.2348 20.0961 14.4347L22.627 18.8097C22.7036 18.9424 22.744 19.093 22.7442 19.2462C22.7444 19.3994 22.7043 19.55 22.628 19.6829C22.5517 19.8158 22.4419 19.9264 22.3094 20.0034C22.177 20.0805 22.0266 20.1215 21.8734 20.1222H14.3604L15.4914 18.9913C15.6556 18.8273 15.7479 18.6047 15.748 18.3726C15.7481 18.1405 15.656 17.9179 15.4919 17.7537C15.3279 17.5895 15.1053 17.4972 14.8732 17.4971C14.6412 17.497 14.4185 17.5891 14.2543 17.7532L11.6293 20.3782C11.548 20.4594 11.4834 20.5559 11.4394 20.6622C11.3954 20.7684 11.3727 20.8822 11.3727 20.9972C11.3727 21.1122 11.3954 21.2261 11.4394 21.3323C11.4834 21.4385 11.548 21.535 11.6293 21.6163L14.2543 24.2413C14.3356 24.3225 14.4321 24.3869 14.5383 24.4309C14.6445 24.4748 14.7583 24.4974 14.8732 24.4973C14.9882 24.4973 15.1019 24.4746 15.2081 24.4306C15.3143 24.3866 15.4107 24.322 15.4919 24.2408C15.5731 24.1595 15.6376 24.063 15.6815 23.9568C15.7254 23.8506 15.748 23.7368 15.748 23.6219C15.7479 23.5069 15.7252 23.3931 15.6812 23.287C15.6372 23.1808 15.5727 23.0844 15.4914 23.0032L14.3604 21.8722H21.8734C22.3341 21.872 22.7865 21.7505 23.1853 21.52C23.5842 21.2894 23.9153 20.9581 24.1455 20.559C24.3757 20.16 24.4969 19.7075 24.4968 19.2468C24.4967 18.7862 24.3754 18.3337 24.1451 17.9347H24.1407ZM12.2484 1.74724C12.4022 1.74569 12.5535 1.78548 12.6867 1.86244C12.8198 1.9394 12.9299 2.05071 13.0053 2.18474L16.7557 8.66521L15.2157 8.25177C14.9943 8.1998 14.7614 8.23608 14.5663 8.35291C14.3712 8.46974 14.2292 8.65795 14.1705 8.87765C14.1118 9.09736 14.1409 9.3313 14.2517 9.5299C14.3625 9.72851 14.5462 9.87617 14.764 9.94161L18.3493 10.903C18.4232 10.9224 18.4993 10.9324 18.5757 10.9325C18.7682 10.9324 18.9553 10.8687 19.1079 10.7515C19.2606 10.6342 19.3703 10.4699 19.4201 10.284L20.3815 6.69755C20.4145 6.58558 20.4248 6.46813 20.4117 6.35213C20.3986 6.23613 20.3625 6.12392 20.3054 6.02211C20.2483 5.92029 20.1714 5.83093 20.0792 5.7593C19.987 5.68766 19.8815 5.63518 19.7687 5.60497C19.6559 5.57476 19.5383 5.56741 19.4226 5.58336C19.307 5.59932 19.1957 5.63825 19.0954 5.69787C18.995 5.75748 18.9076 5.83658 18.8382 5.9305C18.7689 6.02442 18.7191 6.13126 18.6917 6.24474L18.2761 7.79458L14.5201 1.30974C14.2895 0.911435 13.9582 0.580765 13.5595 0.350886C13.1608 0.121007 12.7086 0 12.2484 0C11.7882 0 11.336 0.121007 10.9373 0.350886C10.5386 0.580765 10.2073 0.911435 9.97668 1.30974L7.44356 5.68474C7.33472 5.88517 7.30845 6.12017 7.37033 6.33969C7.43221 6.55921 7.57736 6.74589 7.77485 6.85997C7.97235 6.97405 8.20658 7.0065 8.42765 6.95042C8.64873 6.89434 8.83916 6.75416 8.9584 6.55974L11.4915 2.18474C11.5669 2.05071 11.677 1.9394 11.8101 1.86244C11.9433 1.78548 12.0946 1.74569 12.2484 1.74724Z" fill="#08203C"/>
</svg>
